HIERARCHY
ROOT Base
{
	OFFSET 0.0 0.0 0.0
	CHANNELS 0
	JOINT Door1
	{
		OFFSET -0.125 0.9375 0.00 
		CHANNELS 3 Xrotation Yrotation Zrotation
		JOINT Door2
			{
				OFFSET 0.0625 -1.0 0.00
				CHANNELS 3 Xrotation Yrotation Zrotation
				End Site
				{
					OFFSET 0.0 0.0 0.0
				}
			}
	}
}
MOTION
Frames: 21
Frame Time: 0.041667
0.0 0.0 0.000 0.0 0.0 0.000
0.0 0.0 10.00 0.0 0.0 8.000
0.0 0.0 20.00 0.0 0.0 16.00
0.0 0.0 30.00 0.0 0.0 24.00
0.0 0.0 40.00 0.0 0.0 32.00
0.0 0.0 50.00 0.0 0.0 40.00
0.0 0.0 60.00 0.0 0.0 48.00
0.0 0.0 70.00 0.0 0.0 56.00
0.0 0.0 80.00 0.0 0.0 64.00
0.0 0.0 90.00 0.0 0.0 80.00
0.0 0.0 100.0 0.0 0.0 80.00
0.0 0.0 90.00 0.0 0.0 72.00
0.0 0.0 80.00 0.0 0.0 64.00
0.0 0.0 70.00 0.0 0.0 56.00
0.0 0.0 60.00 0.0 0.0 48.00
0.0 0.0 50.00 0.0 0.0 40.00
0.0 0.0 40.00 0.0 0.0 32.00
0.0 0.0 30.00 0.0 0.0 24.00
0.0 0.0 20.00 0.0 0.0 16.00
0.0 0.0 10.00 0.0 0.0 8.000
0.0 0.0 0.000 0.0 0.0 0.000
